# xmcd
#
# Track frame offsets: 
#        150
#        12410
#        29005
#        44220
#        58495
#        72925
#        86415
#        103057
#        114220
#        130352
#        140802
#        155757
#        173187
#        182420
#        194120
#        210675
#        226110
#        240020
#
# Disc length: 3387 seconds
#
# Revision: 2
# Processed by: cddbd v1.5.2PL0 Copyright (c) Steve Scherf et al.
# Submitted via: ExactAudioCopyFreeDBPlugin 1.0
#
DISCID=0a0d3912
DTITLE=Rex and Petra präsentieren Stars und Sternchen - Im siebten Schla
DTITLE=gerhimmel
DYEAR=1996
DGENRE=Schlager
TTITLE0=Rex und Petra - Viva la Schlager
TTITLE1=Christian du Vall - Dich zu lieben
TTITLE2=Johnny Gold - topolino
TTITLE3=Bully und die Schlauen - Wie der Sonnenschein
TTITLE4=Hilde Gard - Für mich soll's rote Rosen regnen
TTITLE5=Die Vier von der Tankstelle - Marina
TTITLE6=Zico - ich bin verliebt
TTITLE7=Die Slippers - Es wird Nacht, Senorita
TTITLE8=Tanzkapelle Apollo - Oh, Simone
TTITLE9=Rex and Petra - Hokuspokus
TTITLE10=Dana Spontana - Tu es
TTITLE11=Johnny Gold - Fremde oder Freunde
TTITLE12=Bully und die Schlauen - Los Tapetos!
TTITLE13=Die Vier von der Tankstelle - Cinquecento
TTITLE14=Zico - eine neue Liebe
TTITLE15=Die Slippers - Bleib' bei mir
TTITLE16=Tanzkapelle Apollo - Es war Sommer
TTITLE17=Michael Holm - Barfuß im Regen
EXTD=
EXTT0=
EXTT1=
EXTT2=
EXTT3=
EXTT4=
EXTT5=
EXTT6=
EXTT7=
EXTT8=
EXTT9=
EXTT10=
EXTT11=
EXTT12=
EXTT13=
EXTT14=
EXTT15=
EXTT16=
EXTT17=
PLAYORDER=
